<?xml version="1.0" encoding="utf-8"?>
<!-- Generator: Adobe Illustrator 24.0.1, SVG Export Plug-In . SVG Version: 6.00 Build 0)  -->
<svg version="1.1" id="Capa_1" xmlns="http://www.w3.org/2000/svg" xmlns:xlink="http://www.w3.org/1999/xlink" x="0px" y="0px"
	 viewBox="0 0 82.8 103.5" style="enable-background:new 0 0 82.8 103.5;" xml:space="preserve">
<style type="text/css">
	.st0{fill:#FFFFFF;}
</style>
<title>Fichier 1021</title>
<g>
	<g>
		<path class="st0" d="M41.4,0C18.5,0,0,18.5,0,41.4c0,22.9,18.5,41.4,41.4,41.4s41.4-18.5,41.4-41.4c0-3-0.3-6-1-9
			C77.6,13.5,60.8,0,41.4,0z M54.5,41.2c-0.9,1.2-2.3,1.8-3.8,1.8H46v13c0,0.3-0.1,0.7-0.2,1c-0.8,1.7-2.6,2.8-4.4,2.7
			c-1.9,0.1-3.6-1-4.4-2.7c-0.1-0.3-0.2-0.7-0.2-1V43h-4.7c-1.5,0-2.9-0.6-3.8-1.8c-0.8-1-0.8-2.5,0-3.5l9.3-12.8
			c0.9-1.2,2.3-1.8,3.8-1.8c1.5,0,2.9,0.6,3.8,1.8l9.3,12.8C55.3,38.8,55.3,40.2,54.5,41.2z"/>
	</g>
</g>
</svg>
