<?xml version="1.0" encoding="utf-8"?>
<!-- Generator: Adobe Illustrator 24.0.1, SVG Export Plug-In . SVG Version: 6.00 Build 0)  -->
<svg version="1.1" id="Capa_1" xmlns="http://www.w3.org/2000/svg" xmlns:xlink="http://www.w3.org/1999/xlink" x="0px" y="0px"
	 viewBox="0 0 82.8 103.5" style="enable-background:new 0 0 82.8 103.5;" xml:space="preserve">
<style type="text/css">
	.st0{fill:#FFFFFF;}
</style>
<title>Fichier 1018</title>
<g>
	<g>
		<path class="st0" d="M41.4,0C18.5,0,0,18.5,0,41.4s18.5,41.4,41.4,41.4s41.4-18.5,41.4-41.4l0,0C82.8,18.5,64.3,0,41.4,0z
			 M54.5,45.1l-9.3,12.8c-0.9,1.2-2.3,1.8-3.8,1.8c-1.5,0-2.9-0.6-3.8-1.8l-9.3-12.8c-0.8-1-0.8-2.5,0-3.5c0.9-1.2,2.3-1.8,3.8-1.8
			h4.7v-13c0-0.3,0.1-0.7,0.2-1c0.8-1.7,2.6-2.8,4.4-2.6c1.9-0.1,3.6,0.9,4.4,2.6c0.1,0.3,0.2,0.7,0.2,1v13h4.7
			c1.5,0,2.9,0.6,3.8,1.8C55.3,42.6,55.3,44,54.5,45.1z"/>
	</g>
</g>
</svg>
