<?xml version="1.0" encoding="utf-8"?>
<!-- Generator: Adobe Illustrator 24.0.1, SVG Export Plug-In . SVG Version: 6.00 Build 0)  -->
<svg version="1.1" id="Capa_1" xmlns="http://www.w3.org/2000/svg" xmlns:xlink="http://www.w3.org/1999/xlink" x="0px" y="0px"
	 viewBox="0 0 96 120" style="enable-background:new 0 0 96 120;" xml:space="preserve">
<style type="text/css">
	.st0{fill:#FFFFFF;}
</style>
<title>Artboard 20</title>
<g>
	<path class="st0" d="M87.7,19.7L59.3,48l28.4,28.3c3.1,3.1,3.1,8.2,0,11.3s-8.2,3.1-11.3,0L48,59.3L19.7,87.7
		c-3.1,3.1-8.2,3.1-11.3,0s-3.1-8.2,0-11.3L36.7,48L8.3,19.7c-3.1-3.1-3.1-8.2,0-11.3s8.2-3.1,11.3,0L48,36.7L76.3,8.3
		c3.1-3.1,8.2-3.1,11.3,0C90.8,11.5,90.8,16.5,87.7,19.7L87.7,19.7z"/>
</g>
</svg>
