<?xml version="1.0" encoding="utf-8"?>
<!-- Generator: Adobe Illustrator 24.0.1, SVG Export Plug-In . SVG Version: 6.00 Build 0)  -->
<svg version="1.1" id="Capa_1" xmlns="http://www.w3.org/2000/svg" xmlns:xlink="http://www.w3.org/1999/xlink" x="0px" y="0px"
	 viewBox="0 0 96 120" style="enable-background:new 0 0 96 120;" xml:space="preserve">
<style type="text/css">
	.st0{fill:#FFFFFF;}
</style>
<path class="st0" d="M48,8C25.9,8,8,25.9,8,48s17.9,40,40,40s40-17.9,40-40S70.1,8,48,8z M31.2,54.4c-0.4,0.1-0.9,0.1-1.3,0.1
	s-0.9,0-1.3-0.1c-3-0.6-5.2-3.3-5.2-6.4c0-3.4,2.5-6.2,5.9-6.5c0.4,0,0.9,0,1.3,0c3.3,0.3,5.9,3.1,5.9,6.5
	C36.4,51.1,34.2,53.8,31.2,54.4z M49.3,54.4c-0.4,0.1-0.9,0.1-1.3,0.1s-0.9,0-1.3-0.1c-3-0.6-5.2-3.3-5.2-6.4c0-3.4,2.5-6.2,5.9-6.5
	c0.4,0,0.9,0,1.3,0c3.3,0.3,5.9,3.1,5.9,6.5C54.5,51.1,52.3,53.8,49.3,54.4z M67.4,54.4c-0.4,0.1-0.9,0.1-1.3,0.1s-0.9,0-1.3-0.1
	c-3-0.6-5.2-3.3-5.2-6.4c0-3.4,2.5-6.2,5.9-6.5c0.4,0,0.9,0,1.3,0c3.3,0.3,5.9,3.1,5.9,6.5C72.6,51.1,70.4,53.8,67.4,54.4z"/>
</svg>
